<svg t="1755070731790" class="icon" viewBox="0 0 1024 1024" version="1.1" xmlns="http://www.w3.org/2000/svg" p-id="10095" width="20" height="20"><path d="M346.88 582.4l-85.888 236.16 549.12-274.56-549.12-274.56L346.88 505.6H576q3.84 0 7.488 0.768 3.712 0.704 7.232 2.176 3.456 1.408 6.592 3.52 3.2 2.112 5.824 4.8 2.688 2.688 4.8 5.76 2.112 3.2 3.52 6.656 1.472 3.52 2.176 7.232 0.768 3.712 0.768 7.488 0 3.84-0.768 7.488-0.704 3.712-2.176 7.232-1.408 3.456-3.52 6.592-2.112 3.2-4.8 5.824-2.688 2.688-5.76 4.8-3.2 2.112-6.656 3.52-3.52 1.472-7.232 2.176Q579.776 582.4 576 582.4H346.88z m-67.712-38.4L155.904 205.12q-1.28-3.52-1.856-7.296-0.576-3.712-0.384-7.488 0.128-3.84 1.024-7.488 0.896-3.648 2.56-7.04 1.536-3.456 3.84-6.528 2.176-3.072 4.992-5.568 2.752-2.56 6.016-4.544 3.2-1.92 6.784-3.2 7.424-2.752 15.36-2.304 7.872 0.448 14.912 3.968l704 352q3.392 1.728 6.4 4.032 3.008 2.304 5.44 5.12 2.496 2.944 4.352 6.208 1.92 3.264 3.072 6.848 1.216 3.584 1.664 7.36 0.512 3.776 0.192 7.552-0.256 3.712-1.28 7.36-0.96 3.648-2.624 7.04-5.76 11.52-17.216 17.216l-704 352q-3.392 1.664-7.04 2.688-3.648 0.96-7.36 1.28-3.84 0.256-7.552-0.256-3.776-0.448-7.36-1.664-3.584-1.216-6.848-3.072t-6.144-4.352q-2.88-2.432-5.184-5.44-2.304-3.008-4.032-6.4-3.52-7.04-3.968-14.976-0.448-7.872 2.24-15.296L279.168 544z" fill="#ffffff" p-id="10096"></path></svg>
